<?xml version="1.0" encoding="utf-8"?>
<!-- Generator: Adobe Illustrator 19.0.1, SVG Export Plug-In . SVG Version: 6.00 Build 0)  -->
<svg version="1.1" id="Layer_1" xmlns="http://www.w3.org/2000/svg" xmlns:xlink="http://www.w3.org/1999/xlink" x="0px" y="0px"
	 viewBox="0 0 500 500" style="enable-background:new 0 0 500 500;" xml:space="preserve">
<style type="text/css">
	.st0{fill:#0077FF;}
	.st1{fill:#FFFFFF;}
</style>
<circle class="st0" cx="250" cy="250" r="235"/>
<g>
	<path class="st1" d="M378.5,189.1c22.6,20.6,32,46,28.1,76.3c-6.1,30.5-23.3,52-51.8,64.5c-20.6,7.1-41.3,7.9-62,2.4
		c-17.4-4.8-33.9-11.6-49.6-20.3c-8.5-4.2-16.9-8.3-25.1-12.1c-14.7-5.6-29.9-9.5-45.4-11.5c6.3,0.4,12.2-0.6,17.9-3
		c3.6-1.8,5.6-4.5,6.1-8.2c0.4-3.6-0.5-7-2.7-10c-2.4-3.8-5.6-6.7-9.5-8.5c-3.9-1.8-8-3.3-12.3-4.5c-13.9-3.6-28-4.2-42.4-1.8
		c-10.9,1-20.8,4.4-29.7,10.3c-3.4,2.6-6,5.8-7.6,9.4c4.8-12.7,10.9-21.4,18.2-26.2c7.3-4.7,14.5-8,21.8-9.8
		c5.6-1.6,10.8-3.7,15.4-6.4c2.2-1.6,3.6-3.6,4.1-6.1c0.5-2.4-0.1-4.6-1.7-6.7c-2.2-3.2-5.2-4.6-9.1-4.2c-4.8,1.2-9.1,3.3-12.7,6.4
		c-1.4,1-2.6,1.9-3.6,2.7c3.8-4.4,7.8-8.1,12-10.9c4.1-2.8,9.8-5.3,17.1-7.6c7.3-2.2,16.3-3.3,27.2-3.3c13.3,0,26.6,1.3,40,3.9
		c3.8,0.4,7.7,1.2,11.5,2.4c8.7,2.4,17.4,3.8,26,4.2c5-0.2,9.2-1.8,12.6-4.7c3.3-2.9,5-6.5,5-10.7c0-4-1.7-7.5-5-10.4
		c-3.3-2.9-7.5-4.5-12.6-4.7c-5.4,0.2-10.9,1.1-16.3,2.7c1.4-1,2.7-2,3.9-3c20-11.3,41.5-16.4,64.5-15.4
		C336.3,165.1,358.9,173.4,378.5,189.1z M302.2,232.4c-7.3,5.4-15.9,10.3-26,14.7c-10.1,4.3-23.2,6.2-39.3,5.6
		c6.9,3.4,14.1,7.1,21.8,10.9c13.1,7.7,26.5,14.2,40.3,19.5c13.7,5.3,27.3,7,40.9,5c9.3-2.4,16.5-7.4,21.6-15
		c5.1-7.6,6.7-16.2,4.7-25.9c-2-9.5-6.8-16.7-14.4-21.8c-7.6-5-16.2-6.7-25.9-4.8C317.8,222.6,309.9,226.5,302.2,232.4z"/>
</g>
</svg>
