<?xml version="1.0" encoding="UTF-8" standalone="no"?>
<svg
   xmlns:dc="http://purl.org/dc/elements/1.1/"
   xmlns:cc="http://creativecommons.org/ns#"
   xmlns:rdf="http://www.w3.org/1999/02/22-rdf-syntax-ns#"
   xmlns:svg="http://www.w3.org/2000/svg"
   xmlns="http://www.w3.org/2000/svg"
   viewBox="0 0 368 355.20001"
   height="355.20001"
   width="368"
   id="svg10"
   version="1.1">
  <metadata
     id="metadata16">
    <rdf:RDF>
      <cc:Work
         rdf:about="">
        <dc:format>image/svg+xml</dc:format>
        <dc:type
           rdf:resource="http://purl.org/dc/dcmitype/StillImage" />
        <dc:title></dc:title>
      </cc:Work>
    </rdf:RDF>
  </metadata>
  <defs
     id="defs14" />
  <g
     transform="translate(-3.0101733,-3.0101696)"
     id="g3732">
    <path
       id="path3738"
       d="m 174.61017,351.44028 c -1.76,-0.15992 -7.7,-1.01929 -13.2,-1.90973 C 121.06537,342.99887 84.189202,324.38548 56.332441,296.49215 13.555744,253.6593 -3.0465868,194.66473 11.507377,137.21116 25.970505,80.116162 73.230209,32.111139 133.53855,13.255458 150.85001,7.8429476 168.52725,4.8287207 184.56143,4.555312 l 9.10834,-0.1553119 2.0702,4.9957162 2.0702,4.9957167 4.51524,0.0043 c 26.53197,0.02518 60.60537,9.536071 83.9807,23.441508 13.17324,7.836455 20.79915,13.685837 32.50103,24.929627 19.69136,18.920503 33.53702,40.715142 41.69534,65.633152 15.53081,47.43589 8.39441,98.18595 -19.6866,140 -5.58553,8.31714 -9.25059,12.75796 -21.19099,25.67634 l -2.28886,2.47633 1.66784,4.23135 c 0.91732,2.32725 1.564,4.52153 1.43707,4.87619 -0.46087,1.2878 -10.84787,9.16241 -20.04103,15.19356 -25.13226,16.48795 -55.85584,27.2394 -86.52868,30.27996 -8.07034,0.8 -31.79195,0.98522 -39.26106,0.30655 z"
       style="fill:#a8d08d;stroke-width:0.80000001" />
    <path
       id="path3736"
       d="m 179.01017,351.47563 c -36.90589,-3.53669 -65.09994,-12.99383 -93.2,-31.26212 C 46.721202,294.80118 18.640561,254.38035 9.7997988,210.80001 -2.9363032,148.01766 22.174802,83.695314 75.042068,43.681279 106.38869,19.955729 146.78761,5.5834694 184.84254,4.6188208 l 8.63237,-0.2188207 2.23269,5.2000002 c 1.22798,2.8599997 10.61305,25.0000007 20.85571,49.2000017 10.24265,24.2 19.04276,44.808718 19.5558,45.797158 0.88664,1.70824 1.31523,1.3322 8.66208,-7.599997 13.508,-16.422825 17.81184,-20.188644 23.07931,-20.19417 2.07918,-0.0022 3.40759,0.592208 4.91012,2.197009 4.30826,4.601512 3.70485,7.126264 -5.34226,22.352608 -3.34539,5.63033 -8.79579,15.73884 -12.11199,22.46337 l -6.02946,12.22642 2.9885,7.21 c 1.64367,3.9655 3.26011,7.37786 3.59207,7.58303 0.33197,0.20517 2.60489,-2.48306 5.05093,-5.97383 14.91955,-21.29178 40.83988,-54.512381 50.63393,-64.894583 5.71106,-6.054037 9.00244,-7.967015 13.70762,-7.967015 2.6001,0 3.60043,0.46641 5.2791,2.46138 1.13911,1.353759 2.06257,3.243759 2.05212,4.2 -0.0342,3.125092 -3.5423,10.216637 -15.50315,31.338618 -17.34968,30.63829 -27.91764,52.78309 -37.60497,78.80001 l -3.72348,10 20.44712,48.4 c 11.24591,26.62 21.39309,50.65421 22.54928,53.40934 1.15619,2.75515 1.95637,5.12326 1.77817,5.26248 -0.17819,0.13923 -2.84398,2.24282 -5.92398,4.67466 -34.10753,26.92984 -78.0258,41.80335 -122,41.31693 -5.94,-0.0657 -12.06,-0.24022 -13.6,-0.38779 z M 270.622,175.4 c 5.86639,-14.06772 29.74374,-61.03844 36.29585,-71.4 2.50536,-3.96198 -1.45248,0.0413 -8.29561,8.3908 -15.90313,19.40393 -37.68357,50.78228 -36.84293,53.07836 0.79033,2.15865 6.35708,15.33085 6.47903,15.33085 0.0615,0 1.12513,-2.43 2.36366,-5.40001 z m -24.25081,-61.01371 c 1.62856,-3.07245 2.84228,-5.58629 2.69717,-5.58629 -0.1451,0 -1.92839,1.9484 -3.96286,4.32976 -2.37906,2.78472 -3.52508,4.78304 -3.21159,5.6 0.26809,0.69864 0.71892,1.26408 1.00185,1.25653 0.28292,-0.007 1.84687,-2.52753 3.47543,-5.6 z"
       style="fill:#fdbf00;stroke-width:0.80000001" />
    <path
       id="path3734"
       d="m 103.3374,284.02214 c -7.454446,-3.01448 -2.19097,-20.86632 15.78815,-53.54782 4.01644,-7.30087 8.10752,-14.76726 9.09128,-16.59198 l 1.78867,-3.31765 -5.56959,3.60294 c -13.6686,8.84217 -24.85922,11.79372 -32.970428,8.69602 -4.246408,-1.62172 -9.562165,-7.14541 -11.846804,-12.31022 -6.209017,-14.03651 0.919474,-39.66661 18.399236,-66.15343 10.273876,-15.56784 17.229696,-23.99152 31.717146,-38.41023 21.94758,-21.843448 36.52454,-30.789768 50.16823,-30.789768 5.48758,0 8.32094,0.958772 11.38014,3.850895 7.73117,7.308905 7.80714,20.360378 0.20809,35.749103 -4.39267,8.89555 -9.93883,16.33172 -18.85163,25.27589 -7.8301,7.85767 -14.15811,11.90542 -18.62972,11.91661 -4.87575,0.0122 -7.57418,-3.93001 -5.43108,-7.93442 0.4229,-0.7902 4.38405,-4.58516 8.80255,-8.43323 12.41095,-10.80869 23.30822,-24.83866 27.71377,-35.680807 4.56381,-11.231601 0.87311,-17.041401 -8.69035,-13.680113 -16.06264,5.645561 -44.96212,33.78089 -63.36271,61.68728 -6.82363,10.34872 -15.572309,27.23017 -18.474717,35.6488 -1.419952,4.11865 -2.331632,8.68134 -2.5576,12.8 -0.314288,5.72844 -0.15432,6.68608 1.524504,9.12644 4.650664,6.76027 10.467543,7.77837 19.342883,3.38552 5.92903,-2.93458 22.37542,-15.22301 31.62502,-23.62962 5.52055,-5.01741 7.15842,-6.08234 9.35464,-6.08234 3.29004,0 5.15309,2.34656 5.15309,6.49045 0,2.23786 -1.12861,4.65322 -4.75442,10.17502 -15.15794,23.08428 -29.41839,51.84553 -37.66024,75.95523 -4.13396,12.093 -7.00114,14.73167 -13.25811,12.20143 z m 57.26642,-39.62979 c -1.72429,-2.07764 -0.42345,-6.77708 5.99781,-21.66778 11.76373,-27.27972 23.85469,-49.48107 41.5667,-76.32457 19.20099,-29.10012 46.4755,-63.273062 54.31593,-68.053822 3.74197,-2.281701 7.77811,-2.025156 10.28636,0.653824 4.23769,4.526128 3.59532,7.463728 -4.61013,21.082458 -10.79357,17.91427 -23.37994,44.92116 -29.43208,63.1531 -3.1785,9.57519 -6.31274,21.3838 -5.9568,22.44296 0.13121,0.39042 6.40455,-8.55752 13.94077,-19.88432 20.32492,-30.548 51.01586,-71.172909 64.83996,-85.827183 5.71106,-6.054037 9.00244,-7.967015 13.70762,-7.967015 2.6001,0 3.60043,0.46641 5.2791,2.46138 1.13911,1.353759 2.06257,3.243759 2.05212,4.2 -0.0342,3.125092 -3.5423,10.216637 -15.50315,31.338618 -20.73245,36.612 -34.87719,67.78924 -43.07104,94.93533 -2.08118,6.89492 -2.52341,9.78944 -2.6683,17.46468 -0.0955,5.06 -0.21077,9.79192 -0.2561,10.51539 -0.0454,0.72347 -1.12685,2.43347 -2.40339,3.8 -4.14016,4.43206 -9.65577,2.88757 -12.02574,-3.36747 -4.09819,-10.81633 4.43187,-39.16665 23.87426,-79.34793 6.1823,-12.77684 23.00666,-44.66516 26.38013,-50 2.50536,-3.96198 -1.45248,0.0413 -8.29561,8.3908 -14.00922,17.09312 -30.91859,41.39368 -51.45313,73.94362 -9.4722,15.01469 -14.94455,20.06559 -21.73988,20.06559 -2.84575,0 -4.14338,-0.43045 -5.42632,-1.8 -3.68433,-3.93308 -4.07796,-7.48703 -2.11089,-19.05903 2.59307,-15.25473 10.36406,-35.52526 23.80129,-62.08534 7.06262,-13.96 7.38366,-14.79365 4.41154,-11.45564 -19.7282,22.15697 -47.03078,68.71082 -65.18542,111.14821 -5.16233,12.0672 -6.97331,15.4484 -9.96219,18.6 -3.03248,3.19756 -4.13685,3.8518 -6.50205,3.8518 -1.567,0 -3.30012,-0.54345 -3.85137,-1.20766 z"
       style="fill:#000000;stroke-width:0.80000001" />
  </g>
</svg>
