<?xml version="1.0" encoding="UTF-8" standalone="no"?>
<svg
   xmlns:dc="http://purl.org/dc/elements/1.1/"
   xmlns:cc="http://creativecommons.org/ns#"
   xmlns:rdf="http://www.w3.org/1999/02/22-rdf-syntax-ns#"
   xmlns:svg="http://www.w3.org/2000/svg"
   xmlns="http://www.w3.org/2000/svg"
   id="svg8"
   version="1.1"
   viewBox="0 0 500 500"
   height="60px"
   width="60px">
  <defs
     id="defs2" />
  <metadata
     id="metadata5">
    <rdf:RDF>
      <cc:Work
         rdf:about="">
        <dc:format>image/svg+xml</dc:format>
        <dc:type
           rdf:resource="http://purl.org/dc/dcmitype/StillImage" />
        <dc:title></dc:title>
      </cc:Work>
    </rdf:RDF>
  </metadata>
  <g
     transform="translate(0,203)"
     id="layer1">
    <g
       transform="translate(3.2072303,-3.2072343)"
       id="g21">
      <path
         id="path37"
         d="M 52.199497,22.246894 V -87.617661 H 257.11329 462.02708 V 22.246894 132.11145 H 257.11329 52.199497 Z"
         style="fill:#f6f8f8;stroke-width:1.99525356" />
      <path
         id="path35"
         d="M 52.199497,22.246894 V -87.617661 H 257.11329 462.02708 V 22.246894 132.11145 H 257.11329 52.199497 Z M 220.14416,103.17962 c 2.27913,-3.384406 4.63712,-6.499119 5.23996,-6.92158 0.60283,-0.42246 2.66864,-5.09506 4.59067,-10.383556 4.11563,-11.32421 4.50142,-26.351504 1.04991,-40.896992 -1.31846,-5.556369 -2.80706,-12.078633 -3.30798,-14.493921 -0.50094,-2.415288 -1.44791,-3.859539 -2.10437,-3.209452 -1.77594,1.758659 -7.08477,-6.888821 -7.33354,-11.945505 -0.11885,-2.415962 0.41314,-3.769548 1.1822,-3.007972 0.76907,0.761576 1.3983,0.181087 1.3983,-1.289992 0,-1.4710714 0.006,-3.5225937 0.0126,-4.5589372 0.0188,-2.7457223 -4.50238,-2.074167 -13.01706,1.9334798 -7.49496,3.5276924 -9.02847,7.2937584 -6.04459,14.8445834 0.97613,2.470123 3.2147,3.107707 7.4631,2.125616 3.3378,-0.771588 5.11951,-0.810616 3.95933,-0.08673 -1.36288,0.850369 0.31065,4.1203 4.72878,9.239685 6.56315,7.604842 6.83241,8.436393 6.69455,20.675173 -0.079,7.013407 -0.64601,15.958807 -1.26001,19.878665 -1.22876,7.844431 -4.75924,14.742414 -6.29001,12.289677 -0.53638,-0.859916 -0.97548,-0.23753 -0.97548,1.383076 0,1.620608 -0.53199,2.811972 -1.1822,2.647473 -0.6502,-0.164494 -2.60082,-0.147092 -4.33471,0.03867 -2.62848,0.281622 -2.75949,0.744743 -0.78813,2.786042 1.42067,1.471073 1.61508,2.463709 0.4871,2.486947 -1.03252,0.02127 -2.31569,-1.097855 -2.85149,-2.486947 -0.5358,-1.389092 -3.01841,-2.525622 -5.51691,-2.525622 -2.4985,0 -4.98111,-1.13653 -5.51691,-2.525622 -1.82846,-4.740388 -5.51731,-2.620184 -5.49277,3.157027 0.046,10.840524 5.00531,15.539164 17.35004,16.438244 6.28402,0.45767 8.48465,-0.57987 11.85961,-5.59153 z M 263.1518,91.841031 c -0.84225,-3.549474 -1.50089,-6.72579 -1.46367,-7.05848 0.0372,-0.332692 -0.34345,-2.32162 -0.84596,-4.419838 -1.40436,-5.863878 -3.48322,-4.584267 -6.81536,4.195055 -3.20334,8.440013 -2.68884,12.682931 2.5572,21.088602 2.47433,3.96461 2.81879,3.86471 5.3715,-1.55774 2.10336,-4.467969 2.37716,-7.271013 1.19629,-12.247599 z m 52.30454,9.907359 c 1.51731,-3.933708 0.81584,-11.445847 -1.01896,-10.911999 -10.07857,2.93246 -14.33606,1.323292 -19.42836,-7.343165 -10.46974,-17.818179 -10.85635,-55.657121 -0.77549,-75.9003214 3.9037,-7.83896484 5.28257,-8.8937681 11.63281,-8.8989229 11.5163,-0.00934 11.39203,0.073294 10.85545,-7.2191065 -0.37294,-5.0685572 -1.6917,-7.3132822 -5.22754,-8.8980392 -5.53046,-2.478744 -14.97446,-0.389928 -14.97446,3.312038 0,1.408127 -0.53199,2.058243 -1.1822,1.444698 -0.65021,-0.613544 -2.60083,1.755255 -4.33471,5.2639952 -1.73389,3.5087405 -4.67793,8.9966619 -6.54233,12.1953798 -3.21182,5.510473 -8.30034,38.986114 -6.87612,45.235788 0.31654,1.389093 0.69104,5.657497 0.8322,9.485342 0.14123,3.827846 0.72555,7.710989 1.29862,8.629207 0.57306,0.91822 1.04194,3.857996 1.04194,6.532837 0,2.674843 1.41863,7.753076 3.15252,11.284964 1.73388,3.53189 3.15252,7.84243 3.15252,9.578977 0,4.036302 6.19418,10.574548 11.14942,11.768708 5.63011,1.35681 15.84734,-1.93763 17.24469,-5.56038 z m 38.20287,3.9762 c 2.60172,-1.16595 4.33471,-3.69807 4.33471,-6.333579 0,-2.415052 1.36624,-6.915051 3.03607,-9.999998 2.22322,-4.107282 2.8344,-8.098856 2.28283,-14.908771 -1.05433,-13.017071 -4.0104,-28.241939 -5.48348,-28.241939 -0.67993,0 -3.87358,-3.871319 -7.097,-8.602933 -3.2234,-4.731614 -6.65394,-8.115225 -7.62342,-7.519138 -1.0638,0.654081 -2.38359,-4.346984 -3.3287,-12.613393 -1.42779,-12.4882835 -1.28438,-13.9900537 1.62475,-17.01543308 3.39522,-3.53089272 4.14983,-3.94960042 8.01255,-4.44583972 1.35158,-0.1736365 2.01903,-1.4522326 1.48323,-2.8413247 -1.47907,-3.8345785 0.70631,-3.0175398 3.37771,1.262811 3.19856,5.12501481 7.49138,4.98310011 6.2485,-0.2065706 -0.52624,-2.1972431 -0.95678,-4.9985799 -0.95678,-6.2251879 0,-5.382477 -6.26959,-7.546193 -13.45989,-4.645188 -7.92724,3.198332 -12.53099,11.2340831 -10.73425,18.7364103 0.85602,3.5742956 0.51702,4.2258353 -1.54049,2.9607614 -4.00397,-2.4618576 -3.615,19.0838493 0.53894,29.8531623 3.83688,9.947344 12.22917,20.605198 17.16354,21.796994 3.09929,0.748564 3.66837,2.573179 4.07232,13.056612 0.40113,10.410714 -0.15558,13.211227 -3.82108,19.219286 -5.27079,8.639432 -8.28367,10.447002 -10.34608,6.207104 -0.86694,-1.782258 -3.52688,-3.994147 -5.91097,-4.915312 -3.80267,-1.46927 -4.33175,-0.943737 -4.31058,4.281604 0.0126,3.276044 0.54526,7.245632 1.18219,8.821302 2.17284,5.37526 12.03424,6.45095 21.25538,2.31856 z m 50.62576,-4.45297 c -0.11475,-2.376434 0.55245,-4.081228 1.48265,-3.788428 0.9302,0.292798 1.94728,-1.740699 2.2602,-4.518883 0.3129,-2.778184 1.34078,-7.546291 2.28416,-10.595793 1.4985,-4.843935 1.31627,-13.441792 -0.54771,-25.842368 -0.65765,-4.37513 -9.94528,-19.488315 -14.23903,-23.170286 -4.97123,-4.262921 -9.15864,-10.714226 -9.15864,-14.1102 0,-5.015809 5.16761,-20.9921766 6.78999,-20.9921766 0.81252,0 0.50382,-1.9889273 -0.68602,-4.4198384 -1.88112,-3.843294 -1.85489,-4.045271 0.20107,-1.5483704 1.30041,1.5793093 5.37899,3.668135 9.06349,4.6418355 5.95185,1.5728892 6.69911,1.2258182 6.69911,-3.1114349 0,-2.6849887 -1.45831,-6.9964272 -3.2407,-9.5809692 -2.70718,-3.925539 -3.75573,-4.183797 -6.36916,-1.568692 -1.72064,1.721764 -3.81527,2.450353 -4.65471,1.619088 -2.10643,-2.085942 -7.80307,1.086373 -7.80307,4.345337 0,1.610183 1.09161,1.341169 2.75846,-0.679793 2.38128,-2.887185 2.47827,-2.843138 0.70931,0.322155 -1.12702,2.0166463 -2.72299,3.8086938 -3.54658,3.9823303 -0.8236,0.1736365 -2.28265,0.457769 -3.24235,0.6314055 -0.95969,0.1736365 -1.3945,1.7787804 -0.96625,3.5669839 0.42827,1.788206 -0.0809,6.618458 -1.13139,10.7338933 -4.38815,17.190527 5.32389,46.075737 15.90999,47.318909 3.673,0.431338 4.91081,1.826812 4.98932,5.624898 0.0574,2.778184 0.56763,8.614447 1.13373,12.969473 0.9912,7.625158 -1.672,20.653829 -3.59277,17.576212 -0.5002,-0.801463 -1.87851,-0.168585 -3.06291,1.406406 -1.18439,1.574985 -2.58422,2.173378 -3.11073,1.329757 -0.52651,-0.843618 -2.29318,-0.388296 -3.92595,1.011825 -2.2573,1.935672 -3.19232,1.611779 -3.90205,-1.351672 -1.47531,-6.160215 -6.17066,-4.727556 -6.51756,1.988667 -0.43968,8.512229 6.96588,13.538369 17.45597,11.847339 6.45318,-1.04026 8.12493,-2.22425 7.96013,-5.63761 z M 387.95875,38.935232 c -2.26557,-1.010376 -3.19669,-2.471299 -2.20254,-3.455776 0.94722,-0.938001 3.06802,-0.07322 4.71289,1.921751 3.29413,3.995248 3.17361,4.06889 -2.51035,1.534025 z M 124.1737,103.6982 c 0.6757,-1.73636 1.31499,-5.430085 1.42063,-8.208269 0.10564,-2.778184 0.68844,-7.517645 1.29511,-10.532134 1.16235,-5.775588 1.70421,-9.61747 4.17355,-29.591134 1.94635,-15.743402 1.95604,-29.331336 0.0209,-29.331336 -1.4952,0 -3.80508,14.378692 -3.05774,19.034004 0.21489,1.338579 -0.47566,7.290258 -1.53456,13.22595 -1.05889,5.935691 -1.55559,11.750579 -1.10376,12.921973 0.45183,1.171394 -0.46001,3.988076 -2.02631,6.259292 -2.65695,3.852707 -2.96269,3.748371 -4.56167,-1.556675 -3.34112,-11.085051 -5.12674,-23.004549 -5.16478,-34.476288 -0.0212,-6.390902 -0.71104,-16.285766 -1.533,-21.988585 -0.82196,-5.702819 -1.81219,-14.4732228 -2.20051,-19.48978491 -0.90039,-11.63163809 -1.99172,-14.33983709 -5.77854,-14.33983709 -3.76279,0 -3.76422,0.555288 -0.0671,26.071528 3.15029,21.742281 5.00081,36.627893 8.29749,66.745078 1.10238,10.070918 2.47699,18.31076 3.05469,18.31076 0.57769,0 1.42134,2.273059 1.87476,5.051248 0.9197,5.63516 4.99869,6.75643 6.89082,1.89421 z m 36.78773,-3.00797 c 0,-2.00166 -0.70932,-4.341792 -1.57626,-5.200299 -0.86694,-0.858507 -1.52026,-2.914507 -1.45182,-4.568893 0.0826,-1.996845 0.40409,-1.887186 0.95634,0.326222 1.41077,5.654231 4.67262,-4.541887 5.9145,-18.487927 1.51086,-16.966641 5.50619,-44.488459 7.19952,-49.593933 1.8683,-5.632971 3.7621,-33.894438 2.49194,-37.18741 -1.95243,-5.061783 -5.57118,0.176213 -6.46812,9.3623193 -0.49552,5.0749772 -1.52725,13.2050856 -2.29273,18.0669077 -0.76549,4.861822 -2.16371,17.948471 -3.10717,29.081443 -2.47883,29.250597 -4.55007,40.086096 -7.03174,36.78601 -1.10317,-1.46697 -2.88275,-8.946233 -3.95462,-16.620585 -1.07187,-7.67435 -2.6031,-13.305477 -3.40275,-12.513616 -0.85283,0.844535 -0.82697,-1.202315 0.0626,-4.951083 1.09404,-4.610669 0.82961,-9.399567 -0.9493,-17.192282 -1.35616,-5.940801 -2.82304,-17.052368 -3.25973,-24.6923747 -0.43669,-7.6400064 -1.54668,-15.3686243 -2.46665,-17.1747043 -2.58113,-5.067314 -6.13873,2.130643 -7.47034,15.1144914 -0.61484,5.99494 -1.39611,12.6046846 -1.73616,14.6883226 -0.45155,2.7669 0.49589,3.606136 3.51367,3.11237 4.92786,-0.806293 6.41502,4.288831 9.04346,30.983526 2.56507,26.050995 2.96451,28.51379 5.6039,34.55163 1.63343,3.736597 1.90803,6.484047 0.85187,8.523108 -0.85721,1.654969 -1.11578,4.85788 -0.5746,7.117587 1.26098,5.26521 10.10424,5.67583 10.10424,0.46917 z M 227.79544,-5.1408595 c 0.16976,-1.605841 1.22612,-5.5965765 2.34746,-8.8682995 2.1628,-6.310373 1.33572,-18.850482 -2.0508,-31.09416 -1.68185,-6.080606 -12.82787,-17.258122 -17.20948,-17.258122 -4.15125,0 -13.49359,4.588595 -16.20517,7.959351 -0.9624,1.196367 -1.40384,5.075237 -0.98096,8.619712 0.56978,4.775818 1.43101,5.995494 3.32609,4.710422 9.22479,-6.25543 19.23533,-3.740969 23.1422,5.812885 2.34814,5.742159 2.53573,8.978677 1.24507,21.482974 -1.21482,11.7695697 -1.11007,14.47048745 0.52229,13.46682549 1.12302,-0.69050251 1.96639,-0.4439614 1.87411,0.5478655 -0.74932,8.05515801 3.12062,2.83648561 3.98919,-5.37945349 z"
         style="fill:#e8fafa;stroke-width:1.99525356" />
      <path
         id="path33"
         d="M 52.199497,22.246894 V -87.617661 H 257.11329 462.02708 V 22.246894 132.11145 H 257.11329 52.199497 Z M 214.44232,110.30069 c 6.08339,-1.94946 15.28968,-15.739466 18.35471,-27.493276 4.96642,-19.045331 0.73549,-48.644141 -8.79909,-61.556633 l -3.92676,-5.317942 3.48177,-4.740582 c 5.67781,-7.7305906 8.80541,-23.654501 8.02805,-40.874113 -0.60901,-13.490289 -1.32983,-16.185976 -6.46521,-24.178163 -7.12195,-11.083899 -17.32205,-13.742889 -26.70691,-6.962036 -6.11148,4.415735 -6.50075,5.473771 -5.93819,16.139967 0.49551,9.394789 1.44552,10.553526 5.19892,6.34114 4.05585,-4.551828 13.27458,-4.848634 17.67279,-0.568995 3.43363,3.34107 4.13713,6.034772 5.13402,19.658254 0.90996,12.4354101 -5.16269,24.0057566 -13.83089,26.3522791 -6.06878,1.6428489 -6.2776,2.0280416 -6.2776,11.5798679 0,9.660519 0.12633,9.880491 5.67454,9.880491 4.3517,0 6.92386,2.00179 11.03381,8.587115 4.80602,7.700623 5.35929,10.032679 5.35929,22.589758 0,11.160971 -0.77201,15.440729 -3.80418,21.088944 -3.36339,6.265249 -4.77879,7.034276 -12.21601,6.637294 -4.62651,-0.246956 -10.1438,-0.815218 -12.26065,-1.262811 -3.23378,-0.683764 -4.02208,0.509632 -4.93318,7.468244 -0.89893,6.865677 -0.51028,8.788567 2.27255,11.243837 1.84631,1.62898 4.30856,3.2153 5.47168,3.52514 1.16312,0.30985 2.52264,1.2169 3.02116,2.01568 1.19855,1.92042 8.21625,1.84592 14.45538,-0.15345 z m 48.91226,-3.25461 c 2.77693,-8.313847 2.85702,-16.356829 0.22713,-22.810374 -1.39028,-3.411638 -2.31298,-6.821227 -2.05045,-7.576866 0.26253,-0.755635 -0.4605,-1.690868 -1.60674,-2.078291 -3.92131,-1.325378 -7.74682,5.905397 -8.6157,16.28494 -0.69844,8.343556 -0.21942,11.388991 2.46894,15.696521 4.14675,6.64427 7.46325,6.81191 9.57682,0.48407 z m 52.09751,0.29472 c 2.77004,-3.59401 3.30242,-6.14714 2.50152,-11.996704 -0.97878,-7.148891 -1.31017,-7.39835 -8.72816,-6.570249 -6.91477,0.771924 -8.3068,-0.0144 -13.48451,-7.617311 -5.52897,-8.118672 -5.81085,-9.345819 -6.64931,-28.946343 -0.79281,-18.533314 -0.47966,-21.809217 3.31256,-34.653328 4.65439,-15.7642331 7.82846,-18.49136685 18.37635,-15.7888276 4.45193,1.1406542 6.28193,0.686608 6.41035,-1.5904877 0.0988,-1.7527816 0.40844,-6.2586655 0.68797,-10.0130757 0.35205,-4.728323 -0.30872,-7.178805 -2.15005,-7.973527 -13.94881,-6.020338 -19.67855,-3.352024 -29.18623,13.591917 -7.85539,13.9993128 -9.49282,23.239712 -9.38885,52.983061 0.10183,29.108093 1.7479,36.375992 12.017,53.056605 6.37218,10.35065 20.30248,13.27559 26.28136,5.51827 z m 37.49726,1.02341 c 7.03659,-5.85593 11.32674,-17.538714 11.89194,-32.383557 0.59854,-15.721062 -0.27112,-22.730161 -2.54134,-20.482037 -0.9878,0.978179 -1.16437,0.389999 -0.44378,-1.478183 1.41742,-3.67475 -4.30143,-14.232014 -10.51564,-19.412377 -2.35894,-1.966493 -5.72819,-6.050668 -7.48724,-9.075942 -8.35236,-14.364858 1.61545,-34.1419153 12.50249,-24.8060775 3.87905,3.3263628 6.33615,-1.65932605 5.25695,-10.6668532 -0.65498,-5.4667593 -2.16977,-7.5744313 -7.16839,-9.9740553 -5.61739,-2.696674 -6.98545,-2.448231 -12.03392,2.185398 -8.06844,7.405442 -12.78918,19.44193 -12.78918,32.608583 0,16.294634 4.48952,31.361194 9.34497,31.361194 0.92887,0 1.68885,1.122272 1.68885,2.493938 0,1.371667 2.83727,5.363779 6.30504,8.87136 5.76809,5.834308 6.30504,7.306266 6.30504,17.284258 0,16.483611 -5.02557,19.653466 -20.2051,12.744274 -3.42267,-1.557877 -3.62256,-1.044954 -3.15252,8.0894 0.38212,7.425847 1.44205,10.510947 4.4425,12.930607 5.22497,4.21359 13.33983,4.08709 18.59933,-0.28993 z m 49.17985,-0.8815 c 9.56191,-7.653667 13.41468,-28.981479 9.25446,-51.230132 -1.36225,-7.285303 -4.13344,-12.285467 -11.82195,-21.330858 -8.78338,-10.333481 -10.04259,-12.848973 -10.04259,-20.061707 0,-5.0984831 1.23,-10.0303535 3.22192,-12.9187432 2.7403,-3.9735509 4.13786,-4.2802422 9.34893,-2.05159806 5.81699,2.48778306 6.17714,2.30024806 7.11804,-3.70652704 1.53597,-9.8056287 -3.60677,-16.4508857 -12.73126,-16.4508857 -5.09104,0 -8.00394,1.314927 -9.32484,4.209368 -1.05654,2.315154 -2.63724,4.209371 -3.51268,4.209371 -2.27647,0 -5.99589,22.371118 -5.45884,32.833085 0.60278,11.742536 6.77235,26.288383 14.43941,34.043464 10.41941,10.539012 12.84828,25.475287 5.41221,33.282116 -3.44296,3.61462 -5.13897,3.855941 -10.62131,1.511277 -7.52316,-3.217466 -10.50166,-0.828462 -10.50166,8.423199 0,12.251111 14.71995,17.643281 25.22016,9.238571 z m -276.16074,-1.1326 c 1.04033,-1.66692 1.8866,-5.36064 1.88061,-8.208276 -0.006,-2.847639 1.39198,-15.406294 3.10663,-27.908123 1.71465,-12.501829 3.91354,-29.387149 4.88643,-37.522933 0.97288,-8.135786 2.29121,-13.818435 2.92963,-12.62811 0.63841,1.190323 2.05434,10.119935 3.1465,19.84358 8.10514,72.160912 7.66039,70.074082 14.70166,68.981862 4.4155,-0.68492 5.24289,-1.96657 6.2166,-9.629746 4.57839,-36.032481 6.26473,-48.751394 8.37151,-63.140549 2.42448,-16.559018 5.29699,-40.1863102 5.95021,-48.942419 0.38627,-5.177593 -4.50979,-7.864327 -8.01172,-4.396474 -1.79017,1.772749 -7.77618,49.51207 -10.56755,84.277762 -0.52977,6.598187 -1.53602,11.996704 -2.23611,11.996704 -0.70009,0 -2.51646,-11.081166 -4.03637,-24.624814 -1.51991,-13.543648 -3.78825,-31.332439 -5.04074,-39.530648 -1.2525,-8.1982098 -2.54602,-18.3083351 -2.87449,-22.4669433 -0.76063,-9.6300757 -2.76927,-12.8030547 -6.80551,-10.7504417 -2.8051,1.426525 -6.1998,13.958171 -5.3155,19.6223631 0.15514,0.9936352 -0.374,4.5714187 -1.17583,7.9506327 -0.80184,3.3792112 -2.97597,19.6141842 -4.8314,36.0777192 -1.85542,16.463534 -4.02844,31.013402 -4.82892,32.33304 -0.80049,1.319637 -1.45543,1.729321 -1.45543,0.910406 0,-0.818915 -1.00336,-10.422593 -2.22969,-21.341506 -1.22633,-10.918913 -3.10008,-29.513074 -4.16388,-41.320357 -2.68834,-29.838334 -3.66182,-33.349037 -8.97573,-32.36932 -5.285972,0.974569 -5.299056,2.100567 -0.50821,43.734619 4.74694,41.252468 9.71125,75.115432 11.5705,78.925682 1.95722,4.01103 7.82737,4.08302 10.2968,0.12629 z"
         style="fill:#d3fbf9;stroke-width:1.99525356" />
      <path
         id="path31"
         d="M 52.199497,22.246894 V -87.617661 H 257.11329 462.02708 V 22.246894 132.11145 H 257.11329 52.199497 Z M 216.28938,111.56282 c 12.34009,-6.60818 19.14117,-24.324319 19.25941,-50.168786 0.0865,-18.911814 -2.62736,-29.200915 -10.21013,-38.709551 l -5.0407,-6.320924 4.96334,-6.6917519 c 11.38145,-15.3448859 10.33334,-57.5504431 -1.74405,-70.2300121 -8.1173,-8.522011 -22.42705,-7.157011 -30.77373,2.935487 -3.40308,4.114875 -3.5507,5.246083 -1.93737,14.846126 l 1.74641,10.391853 6.99713,-4.959344 c 12.09944,-8.575696 19.73336,-0.938051 19.73336,19.742992 0,15.3807571 -3.84849,20.9582219 -16.55073,23.9863012 -2.4886,0.593256 -3.2546,3.0075107 -3.63722,11.4636338 -0.45725,10.105559 -0.24761,10.712105 3.70243,10.712105 15.38472,0 24.5199,26.286661 16.4789,47.418365 -5.16372,13.570248 -14.12239,15.914267 -25.43634,6.655375 -3.84103,-3.143351 -4.23608,-2.973109 -5.10132,2.198398 -1.91709,11.458322 -1.05112,19.258603 2.47361,22.281123 8.61227,7.38518 16.86078,8.84845 25.077,4.44861 z m 47.73579,-3.35592 c 4.6463,-11.362031 2.89918,-29.439501 -3.28125,-33.951535 -8.98229,-6.557535 -14.28577,17.797533 -7.4928,34.409065 3.07743,7.52552 7.58786,7.33398 10.77405,-0.45753 z m 46.60337,3.49029 7.95888,-2.7349 V 98.227207 c 0,-5.904295 -0.40249,-11.37999 -0.89443,-12.168214 -0.49193,-0.788224 -3.48628,-0.286469 -6.65409,1.115014 -12.36174,5.46899 -21.64414,-12.647721 -21.57819,-42.114695 0.063,-28.189846 9.38538,-46.3253068 21.55269,-41.928353 6.54953,2.3668386 7.57402,0.5200306 7.57402,-13.653502 0,-9.811645 -1.81452,-11.428947 -12.82262,-11.428947 -12.73577,0 -23.89832,15.6578179 -27.98764,39.258558 -2.49543,14.401796 -2.14391,46.089322 0.68029,61.327342 2.80973,15.159793 10.80028,29.42882 18.46649,32.97626 2.81201,1.30122 5.25517,2.46836 5.42924,2.59364 0.17406,0.12528 3.89798,-1.00292 8.27536,-2.50712 z m 45.47031,-3.90321 c 6.25617,-6.45825 9.76427,-18.587097 9.76803,-33.771836 0.005,-19.239246 -3.65689,-29.562895 -14.57206,-41.084353 -7.97109,-8.413834 -9.0635,-10.563118 -9.0635,-17.83206 0,-4.545822 0.85118,-9.6289668 1.89151,-11.2958773 2.32842,-3.7308083 9.86082,-3.94400868 13.99811,-0.3962094 3.36066,2.8818306 3.68102,2.1532215 5.171,-11.7604425 0.7064,-6.5964298 0.20858,-8.3255508 -3.09029,-10.7338928 -10.4824,-7.652693 -23.14872,-1.143723 -28.02239,14.4001513 -7.4687,23.8203457 -2.02147,49.6702047 13.10848,62.2065157 8.30845,6.884169 10.44286,20.122651 4.72219,29.288815 -3.56509,5.712302 -10.13549,5.068898 -16.75363,-1.640594 -3.3117,-3.357438 -3.51783,-3.052934 -4.86936,7.193378 -1.64469,12.468815 -1.18828,13.679905 6.94791,18.436555 6.78221,3.96505 15.18743,2.74655 20.764,-3.01015 z m 44.39192,2.59485 c 10.76521,-6.90166 16.41199,-29.267347 12.80626,-50.722973 -1.68009,-9.997265 -5.63073,-16.911079 -18.96587,-33.191218 -11.00602,-13.436627 -1.19099,-33.5815083 11.18919,-22.9652838 3.96399,3.3992043 4.12017,3.1293391 5.35616,-9.2555684 0.91956,-9.2141408 0.63604,-10.3974148 -3.1545,-13.1646988 -6.41308,-4.681869 -16.3189,-3.735647 -21.38339,2.042585 -9.35948,10.678516 -12.18756,42.338809 -5.15538,57.714497 1.67454,3.661318 6.34313,10.066533 10.37466,14.233809 7.87567,8.140863 10.90187,16.923658 8.86743,25.735608 -2.22808,9.65068 -7.14045,11.947422 -15.11566,7.067228 -3.85875,-2.361239 -7.23336,-3.888662 -7.49917,-3.394269 -0.26578,0.494393 -0.94572,5.003487 -1.51095,10.020208 -1.1432,10.146226 0.52232,13.761356 7.99596,17.355876 6.65025,3.19851 9.27775,2.95908 16.19526,-1.4758 z M 129.00002,92.964309 c 9.45169,-74.281707 9.38674,-73.897148 10.664,-63.140549 0.65978,5.556368 3.09137,25.445641 5.40354,44.198384 l 4.20393,34.095896 6.54905,0.77004 c 7.56772,0.88982 6.33593,5.51006 13.67222,-51.282479 4.66426,-36.107519 8.68674,-65.7698043 9.84682,-72.611631 0.63012,-3.716273 -0.34261,-4.419838 -6.11076,-4.419838 h -6.86017 l -4.3244,42.304167 c -2.37842,23.267293 -4.30436,44.86136 -4.27987,47.986818 0.0245,3.125457 -0.66479,5.682649 -1.53173,5.682649 -0.86694,0 -1.5762,-1.988927 -1.57614,-4.419838 7e-5,-2.430912 -2.26718,-24.08028 -5.03834,-48.109707 l -5.03846,-43.689868 -5.60142,0.754295 -5.60141,0.754295 -5.61472,45.461195 c -6.86326,55.570424 -7.04651,56.419364 -8.45013,39.14714 -0.62086,-7.640006 -2.49529,-27.529279 -4.1654,-44.198384 -1.67011,-16.6691049 -3.03942,-32.864656 -3.04291,-35.990113 -0.006,-5.073565 -0.78872,-5.682649 -7.30576,-5.682649 h -7.299409 l 0.922248,8.208271 c 1.19321,10.61991462 13.403121,107.431823 14.510971,115.056937 0.7429,5.11317 1.65719,5.72952 7.49311,5.05124 l 6.64696,-0.77254 z"
         style="fill:#a4e2dc;stroke-width:1.99525356" />
      <path
         id="path29"
         d="M 52.199497,22.246894 V -87.617661 H 257.11329 462.02708 V 22.246894 132.11145 H 257.11329 52.199497 Z M 220.52804,109.6334 c 11.11249,-9.1183 17.03538,-29.236957 15.67647,-53.249303 -0.99406,-17.565519 -4.51671,-29.087161 -10.7502,-35.161131 l -4.7095,-4.588981 3.76228,-3.949864 c 5.76999,-6.0576709 8.96305,-19.4421944 8.9564,-37.542928 -0.006,-18.576293 -3.31858,-29.516795 -11.40758,-37.685313 -6.29965,-6.36158 -20.25815,-5.45438 -28.00097,1.819857 -4.65335,4.371736 -4.90703,5.336011 -3.88804,14.779364 0.59956,5.556369 1.13033,11.449614 1.1795,13.0961 0.0597,1.998325 2.07741,1.368554 6.06893,-1.894216 8.48308,-6.9343 14.61516,-6.351833 18.60079,1.766829 7.41314,15.100396 1.79858,35.3833548 -10.52781,38.0324417 l -6.69664,1.4391878 V 18.462545 30.429644 l 7.43522,1.34281 c 10.46625,1.890213 14.63242,10.037365 14.63242,28.614408 0,11.353246 -0.70087,14.987886 -3.86901,20.064139 -4.77514,7.651167 -13.43297,8.26013 -21.67807,1.524764 l -5.72228,-4.67449 -1.70418,10.844129 c -2.3954,15.242536 -2.43488,15.076806 4.99493,20.969526 8.45427,6.70524 19.84713,6.91889 27.64734,0.51847 z m 43.16024,0.61882 c 3.94615,-5.72212 3.94375,-25.993806 -0.005,-33.805403 -7.71274,-15.261508 -18.80626,9.909679 -12.64006,28.680233 3.34443,10.18075 7.88759,12.02229 12.64406,5.12517 z m 50.56443,1.52145 c 6.25617,-2.78385 6.42398,-3.39918 4.91497,-18.022804 l -0.96132,-9.315934 -7.43971,1.411813 c -4.47077,0.848409 -8.85142,0.201241 -10.97729,-1.621732 -8.46709,-7.260689 -12.35555,-41.899935 -7.07657,-63.039666 3.53187,-14.1434473 8.6257,-18.8472944 18.20496,-16.8112138 6.85281,1.4565717 7.66967,1.1165699 7.66967,-3.1923331 0,-2.652393 0.4336,-8.2963196 0.96357,-12.5420621 0.91929,-7.364875 0.64773,-7.857808 -5.91097,-10.72937 -14.23601,-6.232866 -27.67806,5.960468 -34.62638,31.4097387 -2.76273,10.1188483 -3.54801,17.8642953 -3.61515,35.6573853 -0.10293,27.286188 2.22072,41.172653 8.94231,53.438884 8.19962,14.963554 17.23489,18.998284 29.91191,13.357294 z m 40.53507,-1.76534 c 7.91424,-6.39699 11.86438,-18.827598 11.83681,-37.248997 -0.029,-19.391096 -3.61583,-29.395221 -14.59725,-40.713986 -9.15345,-9.43464 -10.62132,-13.025569 -9.15388,-22.3937448 1.29291,-8.2539952 7.19279,-10.53946591 13.72615,-5.3171793 2.78222,2.2238985 5.20721,3.7543926 5.38887,3.401096 0.18166,-0.3532967 0.82183,-6.0680669 1.42262,-12.6994889 l 1.09233,-12.057132 -5.93821,-3.975504 c -6.71036,-4.492442 -14.58562,-3.371276 -20.58871,2.931129 -6.00711,6.306619 -10.43612,24.6954402 -9.54142,39.614991 0.89592,14.939607 4.49042,23.418188 14.2153,33.530465 8.15415,8.478981 11.09953,16.230809 9.65966,25.422931 -1.30577,8.336055 -7.43893,10.508744 -15.90113,5.633008 -7.43699,-4.285035 -6.97688,-4.900272 -9.1155,12.189079 -0.91295,7.295253 -0.53782,8.184623 5.00516,11.866563 7.94935,5.28037 15.80896,5.21633 22.4892,-0.18323 z m 52.24551,-4.68504 c 5.88375,-9.032086 8.22964,-21.149259 7.35737,-38.002975 -0.79813,-15.420844 -4.22312,-24.506627 -12.4064,-32.911541 -8.73613,-8.972744 -10.88888,-13.024928 -10.88888,-20.496432 0,-12.8277253 5.54492,-16.5048616 14.14416,-9.3797462 4.4886,3.7191375 4.53945,3.6786896 5.55632,-4.4198384 0.56444,-4.4953293 1.34869,-10.025565 1.74276,-12.2894114 0.50965,-2.927761 -1.12627,-5.297502 -5.66649,-8.208271 -8.34866,-5.352394 -12.30972,-5.150511 -18.54961,0.945413 -7.91437,7.731763 -11.40245,18.94382686 -11.3972,36.635162 0.006,18.741438 3.04542,26.953688 14.512,39.204492 6.86757,7.337268 8.41543,10.354914 8.8291,17.212932 0.2759,4.573747 -0.34294,9.946455 -1.37519,11.939353 -2.47167,4.771897 -9.91734,4.607451 -15.90191,-0.351213 -2.63834,-2.186065 -5.08268,-3.516909 -5.43185,-2.95743 -0.34918,0.55948 -1.08817,6.316393 -1.64221,12.793141 -0.98496,11.514165 -0.88876,11.861815 4.32793,15.641145 8.17411,5.92188 21.13128,3.33202 26.7901,-5.35478 z m -278.71919,-3.5193 c 0.78421,-4.861827 3.37567,-24.182835 5.75881,-42.935578 3.33554,-26.247056 4.55178,-32.351709 5.28344,-26.51903 0.52275,4.167276 2.82245,22.905057 5.11043,41.639515 2.28798,18.734457 4.49452,34.930013 4.90342,35.990113 0.40891,1.0601 3.49107,1.92746 6.84926,1.92746 4.43831,0 6.33942,-1.20705 6.96126,-4.41984 1.52044,-7.855498 16.65877,-121.296121 16.68333,-125.018282 0.007,-1.041819 -3.12307,-1.894216 -6.95543,-1.894216 -8.07787,0 -7.0259,-4.108965 -11.96225,46.724006 -4.80356,49.46544 -4.71944,49.330498 -8.65958,13.890921 -1.93048,-17.363651 -4.3653,-38.1053216 -5.41071,-46.092601 l -1.90075,-14.522326 h -6.19329 c -3.40631,0 -6.1994,0.284132 -6.20688,0.631405 -0.007,0.347273 -2.49009,20.9483245 -5.51691,45.780113 -3.02682,24.831787 -5.57462,45.857589 -5.66177,46.724006 -0.0871,0.866415 -1.48947,-12.06306 -3.11626,-28.732164 -1.62679,-16.669105 -3.74752,-37.9790405 -4.71274,-47.3554121 l -1.75494,-17.0479479 h -7.8451 c -6.746208,0 -7.725414,0.619105 -6.99062,4.419838 0.469968,2.430911 4.07417,29.991761 8.00935,61.246333 3.93517,31.254571 7.55951,58.876087 8.05408,61.381147 0.7104,3.59819 2.25883,4.39374 7.37363,3.78843 5.9343,-0.7023 6.59335,-1.50364 7.90022,-9.60589 z"
         style="fill:#5aa99f;stroke-width:1.99525356" />
      <path
         id="path27"
         d="M 52.199497,22.246894 V -87.617661 H 257.11329 462.02708 V 22.246894 132.11145 H 257.11329 52.199497 Z m 70.578673,90.656676 c 4.56757,-1.46371 4.91039,-2.50789 8.0847,-24.624815 1.82318,-12.702957 4.25907,-31.051997 5.4131,-40.775641 l 2.09823,-17.679354 1.15334,10.102488 c 2.81812,24.684817 8.9931,70.375852 9.79041,72.442912 0.81777,2.12013 12.70336,1.49804 13.75484,-0.71993 0.58638,-1.23691 3.48419,-21.395742 7.40564,-51.518007 4.05976,-31.184624 8.90053,-66.7729713 10.22027,-75.137253 1.08687,-6.888442 1.03084,-6.94546 -6.82569,-6.94546 h -7.92157 l -1.79632,13.2595151 c -0.98798,7.2927334 -2.90101,25.1606169 -4.25118,39.7064059 -3.29103,35.455303 -4.47542,40.058251 -5.83307,22.669326 -0.99076,-12.689732 -6.94846,-65.008357 -8.27,-72.624567 -0.38499,-2.218744 -2.74738,-3.048006 -7.19494,-2.525622 -7.6355,0.896823 -6.65296,-2.974612 -12.37608,48.76457 -1.9975,18.058197 -4.22118,33.912789 -4.9415,35.232426 -0.77754,1.424466 -1.30968,0.835574 -1.30968,-1.449366 0,-5.511074 -4.48908,-54.0802866 -6.44889,-69.7731729 L 111.87387,-21.95149 h -7.76955 c -4.871262,0 -7.769545,1.099764 -7.769545,2.948184 0,4.51739 15.907925,129.243256 16.768715,131.474916 0.90981,2.35873 3.32554,2.46659 9.67468,0.43196 z m 101.43176,-4.78209 c 8.45724,-10.280306 11.50367,-21.125721 12.13284,-43.193371 0.48528,-17.021045 0.0265,-22.20814 -2.72997,-30.865489 -1.8223,-5.723383 -5.17846,-11.972017 -7.45812,-13.88585 l -4.14486,-3.4797 3.31744,-3.723108 c 4.77796,-5.3622365 9.64355,-24.227784 9.68377,-37.547326 0.0416,-13.781311 -5.19935,-31.532319 -11.47367,-38.860938 -6.47061,-7.557901 -20.3982,-7.134622 -28.47689,0.865452 -5.94089,5.883072 -6.06457,6.30718 -5.34393,18.324195 0.40575,6.765957 1.12627,12.924299 1.60116,13.685209 0.47489,0.760909 3.74118,-0.968874 7.25843,-3.843964 7.92053,-6.47445 11.4404,-6.571545 16.16176,-0.445818 2.76523,3.58776 3.68539,7.335747 3.68539,15.011358 0,13.905867 -5.12702,22.6149363 -13.91938,23.644347 l -6.50036,0.7610633 -0.46905,12.9182007 -0.46905,12.918197 7.84998,1.668522 c 6.18961,1.315612 8.74183,3.366778 12.06649,9.697656 3.62059,6.894349 4.11365,9.744498 3.48868,20.166167 -1.26205,21.045194 -10.46142,29.452005 -22.6063,20.658711 -3.39119,-2.455329 -6.82876,-4.536272 -7.63905,-4.624325 -0.81029,-0.08804 -2.32376,5.181896 -3.36326,11.71099 -2.02158,12.697451 -1.46981,14.584361 6.41278,21.929801 5.20106,4.84663 26.00804,2.49928 30.93517,-3.48998 z m 40.98572,2.13401 c 1.24847,-2.41034 2.16333,-9.98122 2.16333,-17.902503 0,-11.377942 -0.63656,-14.551785 -3.72121,-18.553989 -4.83139,-6.268495 -5.86966,-6.106909 -10.7225,1.668746 -3.61196,5.787382 -3.97595,8.019168 -3.33323,20.437432 0.42194,8.152604 1.64434,14.876624 2.94419,16.195074 3.59337,3.64481 10.33443,2.66326 12.66942,-1.84476 z m 51.00741,1.66315 c 3.82507,-2.33018 4.09114,-3.48116 3.6492,-15.785135 -0.51372,-14.302135 0.12752,-13.674319 -10.7224,-10.498619 -5.46733,1.600256 -11.06712,-3.712609 -14.84899,-14.088144 -2.4515,-6.725669 -3.17622,-13.046889 -3.09953,-27.035026 0.0853,-15.551964 0.74505,-19.818497 4.4533,-28.796982 l 4.35322,-10.5400973 9.25712,1.344972 9.25712,1.344972 0.96748,-8.26314557 c 1.776,-15.16862513 0.49414,-19.89872613 -6.06294,-22.37242913 -22.84004,-8.616568 -38.95449,20.4539844 -38.95449,70.274108 0,32.178098 5.96595,53.238006 18.12699,63.988516 3.96016,3.50083 18.15692,3.75745 23.62392,0.42701 z m 41.16633,-3.07209 c 6.78856,-7.45319 10.08209,-19.363796 10.08209,-36.460433 0,-18.770203 -4.30101,-30.786185 -14.40356,-40.240015 -7.64704,-7.155994 -10.11606,-13.48865 -8.95139,-22.9589592 0.44077,-3.5840545 1.97376,-4.583577 6.8387,-4.4588946 3.4488,0.088397 7.41865,1.0050662 8.82186,2.0370606 2.87454,2.1140668 4.48376,-4.1998214 4.52036,-17.7358368 0.018,-6.672158 -0.78224,-8.410144 -4.94248,-10.733893 -10.49901,-5.86433 -20.34869,-1.95838 -26.54639,10.527125 -3.18556,6.4174392 -4.01841,11.26687829 -4.41681,25.717712 -0.60752,22.036738 1.97871,29.701842 14.52291,43.043061 7.75026,8.242701 8.7942,10.352954 8.7942,17.776868 0,6.487972 -0.81505,8.861478 -3.54658,10.327978 -4.77215,2.562056 -10.66294,1.337117 -15.00286,-3.119709 -4.29736,-4.413118 -5.067,-2.438774 -5.55868,14.259432 -0.27812,9.445004 0.23322,11.461764 3.61674,14.264894 6.51546,5.39782 20.2859,4.21587 26.17189,-2.24639 z m 46.28875,2.35449 c 5.33638,-4.32655 10.59798,-17.545325 11.90042,-29.897495 2.19924,-20.857301 -5.01328,-42.509589 -17.72279,-53.204502 -5.76686,-4.85276 -8.20272,-15.13948 -5.03371,-21.2576751 2.03167,-3.9224122 7.22912,-3.8579381 15.00696,0.1861636 2.97774,1.5482845 3.42067,0.49336 4.3489,-10.357606 1.42486,-16.6564595 -0.80314,-19.7748215 -14.17257,-19.8363665 -10.12318,-0.0466 -10.53436,0.208389 -15.66696,9.715742 -5.83215,10.8031537 -8.07222,25.625024 -6.23906,41.281912 1.09509,9.353159 7.88713,21.739284 19.54851,35.649134 5.13832,6.129073 6.42915,14.698504 3.03359,20.139163 -2.60726,4.177573 -11.52278,3.800162 -16.97649,-0.718651 l -4.52512,-3.749394 -1.70165,12.713385 c -0.9359,6.992361 -1.70165,13.18941 -1.70165,13.77122 0,0.58181 1.95062,2.75342 4.33472,4.82581 5.30186,4.60867 20.26083,5.04115 25.5669,0.73916 z"
         style="fill:#029584;stroke-width:1.99525356" />
      <path
         id="path25"
         d="m 196.42728,117.78786 c -3.46777,-1.99777 -8.17362,-6.49811 -10.45745,-10.00076 -3.43851,-5.27357 -3.92047,-7.5294 -2.80334,-13.121239 0.74199,-3.714039 1.73744,-9.878253 2.21212,-13.698257 0.69237,-5.571959 1.71432,-6.929576 5.16773,-6.865138 2.36757,0.04417 5.68156,1.748973 7.36441,3.788433 4.31795,5.232975 10.78005,4.602396 15.64281,-1.526443 6.05231,-7.628072 5.84307,-22.753838 -0.4543,-32.844054 -2.53414,-4.060422 -6.29981,-7.382587 -8.36816,-7.382587 -6.16441,0 -9.18022,-5.430502 -9.94251,-17.903238 -0.63122,-10.3279725 -0.24843,-12.0196796 3.80666,-16.8234302 3.35018,-3.9687017 4.96583,-4.6079341 6.28879,-2.4881644 1.32297,2.1197696 2.89509,1.52403854 6.11936,-2.3188418 5.28975,-6.3046393 6.11954,-13.2058736 2.81791,-23.4359276 -2.8252,-8.753814 -9.00696,-10.495962 -14.3343,-4.039702 -7.67013,9.295498 -14.97061,-1.376209 -13.62024,-19.909802 0.56595,-7.76756 1.64129,-9.661832 8.67124,-15.274919 20.16425,-16.100225 40.30772,-1.974298 42.64623,29.906337 1.24487,16.971225 -0.96431,34.5886128 -5.59606,44.6265836 l -3.39726,7.3625724 3.42736,4.76286 c 1.88506,2.619573 3.42737,6.391173 3.42737,8.38133 0,1.99016 0.88664,5.040659 1.97032,6.77889 1.29083,2.0705 1.96967,11.17243 1.96839,26.39275 -0.002,21.680903 -0.32099,23.991292 -4.77987,34.597629 -3.25803,7.749908 -7.49764,13.574708 -13.32757,18.310758 -9.37833,7.61867 -14.88827,8.23262 -24.44964,2.72436 z m 27.78265,-9.66638 c 8.45724,-10.280306 11.50367,-21.125721 12.13284,-43.193371 0.48528,-17.021045 0.0265,-22.20814 -2.72997,-30.865489 -1.8223,-5.723383 -5.17846,-11.972017 -7.45812,-13.88585 l -4.14486,-3.4797 3.31744,-3.723108 c 4.77796,-5.3622365 9.64355,-24.227784 9.68377,-37.547326 0.0416,-13.781311 -5.19935,-31.532319 -11.47367,-38.860938 -6.47061,-7.557901 -20.3982,-7.134622 -28.47689,0.865452 -5.94089,5.883072 -6.06457,6.30718 -5.34393,18.324195 0.40575,6.765957 1.12627,12.924299 1.60116,13.685209 0.47489,0.760909 3.74118,-0.968874 7.25843,-3.843964 7.92053,-6.47445 11.4404,-6.571545 16.16176,-0.445818 2.76523,3.58776 3.68539,7.335747 3.68539,15.011358 0,13.905867 -5.12702,22.6149363 -13.91938,23.644347 l -6.50036,0.7610633 -0.46905,12.9182007 -0.46905,12.918197 7.84998,1.668522 c 6.18961,1.315612 8.74183,3.366778 12.06649,9.697656 3.62059,6.894349 4.11365,9.744498 3.48868,20.166167 -1.26205,21.045194 -10.46142,29.452005 -22.6063,20.658711 -3.39119,-2.455329 -6.82876,-4.536272 -7.63905,-4.624325 -0.81029,-0.08804 -2.32376,5.181896 -3.36326,11.71099 -2.02158,12.697451 -1.46981,14.584361 6.41278,21.929801 5.20106,4.84663 26.00804,2.49928 30.93517,-3.48998 z m 110.92822,9.53556 c -4.33471,-2.09854 -8.48174,-5.48251 -9.2156,-7.51994 -1.13281,-3.14498 -1.84695,-2.94994 -4.72878,1.29152 -4.3721,6.43481 -13.97849,8.82823 -23.63919,5.88966 -5.56848,-1.69381 -9.30108,-4.92958 -13.79227,-11.95648 -3.38671,-5.29881 -6.15764,-11.108336 -6.15764,-12.910061 0,-1.801723 -0.58749,-3.275863 -1.30554,-3.275863 -2.57774,0 -4.81339,-24.855762 -4.26594,-47.42813 0.47845,-19.727347 1.27677,-25.34499 5.60245,-39.4238445 2.77447,-9.0301011 6.2078,-18.0098915 7.6296,-19.9550935 4.7098,-6.443551 16.25799,-12.107129 23.4675,-11.509165 9.91669,0.822499 13.67048,6.381814 13.97109,20.6910716 0.31087,14.7976695 -2.42145,18.7952744 -13.53952,19.8094404 -7.7826,0.709912 -8.9388,1.597726 -12.19731,9.366019 -6.35915,15.160213 -4.24576,44.982299 4.02429,56.786822 2.72313,3.886957 4.75606,4.450618 11.15016,3.091545 6.43611,-1.367998 8.08642,-0.898876 9.32632,2.651128 1.34474,3.850177 1.93188,3.52081 5.46893,-3.067896 3.78856,-7.057216 4.09459,-7.189526 6.97352,-3.014943 4.34324,6.297916 13.04988,8.756907 13.04988,3.685635 0,-2.143662 0.37947,-5.482067 0.84329,-7.418676 0.52853,-2.206932 -2.73311,-7.971154 -8.73901,-15.444229 -5.27026,-6.557719 -9.96995,-13.874282 -10.44376,-16.25903 -0.47383,-2.384748 -1.52677,-6.608964 -2.33988,-9.387148 -1.9187,-6.555722 -0.81313,-31.3763321 1.75039,-39.2966977 6.70892,-20.7282263 22.68197,-28.9050963 34.29751,-17.5574773 4.39098,4.289696 5.12284,6.433135 5.12284,15.0034522 0,6.8100391 -1.16331,12.1657568 -3.64775,16.7936938 -3.18289,5.928994 -4.09441,6.411898 -7.1527,3.789352 -4.01664,-3.4443394 -8.99618,-1.692717 -10.26647,3.611377 -0.93929,3.922036 2.80352,11.286032 5.81098,11.433074 3.12027,0.152547 9.89161,10.667788 14.4688,22.46863 3.92078,10.108463 4.25178,12.740371 3.41277,27.136477 -0.51103,8.768275 -1.68206,18.196545 -2.60233,20.951713 -2.91853,8.737784 -9.3011,17.428654 -14.60033,19.880624 -2.81942,1.30456 -6.19019,2.94276 -7.49061,3.64045 -1.30041,0.69769 -5.91097,-0.44847 -10.24569,-2.54701 z m -18.93509,-5.7384 c 3.82507,-2.33018 4.09114,-3.48116 3.6492,-15.785135 -0.51372,-14.302135 0.12752,-13.674319 -10.7224,-10.498619 -5.46733,1.600256 -11.06712,-3.712609 -14.84899,-14.088144 -2.4515,-6.725669 -3.17622,-13.046889 -3.09953,-27.035026 0.0853,-15.551964 0.74505,-19.818497 4.4533,-28.796982 l 4.35322,-10.5400973 9.25712,1.344972 9.25712,1.344972 0.96748,-8.26314557 c 1.776,-15.16862513 0.49414,-19.89872613 -6.06294,-22.37242913 -22.84004,-8.616568 -38.95449,20.4539844 -38.95449,70.274108 0,32.178098 5.96595,53.238006 18.12699,63.988516 3.96016,3.50083 18.15692,3.75745 23.62392,0.42701 z m 41.16633,-3.07209 c 6.78856,-7.45319 10.08209,-19.363796 10.08209,-36.460433 0,-18.770203 -4.30101,-30.786185 -14.40356,-40.240015 -7.64704,-7.155994 -10.11606,-13.48865 -8.95139,-22.9589592 0.44077,-3.5840545 1.97376,-4.583577 6.8387,-4.4588946 3.4488,0.088397 7.41865,1.0050662 8.82186,2.0370606 2.87454,2.1140668 4.48376,-4.1998214 4.52036,-17.7358368 0.018,-6.672158 -0.78224,-8.410144 -4.94248,-10.733893 -10.49901,-5.86433 -20.34869,-1.95838 -26.54639,10.527125 -3.18556,6.4174392 -4.01841,11.26687829 -4.41681,25.717712 -0.60752,22.036738 1.97871,29.701842 14.52291,43.043061 7.75026,8.242701 8.7942,10.352954 8.7942,17.776868 0,6.487972 -0.81505,8.861478 -3.54658,10.327978 -4.77215,2.562056 -10.66294,1.337117 -15.00286,-3.119709 -4.29736,-4.413118 -5.067,-2.438774 -5.55868,14.259432 -0.27812,9.445004 0.23322,11.461764 3.61674,14.264894 6.51546,5.39782 20.2859,4.21587 26.17189,-2.24639 z M 324.89246,92.964309 c 0,-2.083638 -0.68706,-3.788433 -1.52679,-3.788433 -0.83972,0 -1.1185,1.704795 -0.61949,3.788433 0.49903,2.083638 1.18607,3.788433 1.5268,3.788433 0.34071,0 0.61948,-1.704795 0.61948,-3.788433 z m -73.99629,21.608661 c -3.64288,-5.83694 -5.52161,-19.556374 -4.09911,-29.933725 1.23327,-8.996894 6.46798,-17.129185 12.0436,-18.710108 8.68523,-2.462625 14.89408,28.768771 8.72055,43.865533 -4.2403,10.36921 -11.81944,12.54235 -16.66504,4.7783 z m 14.29948,-4.31748 c 1.24847,-2.41034 2.16333,-9.98122 2.16333,-17.902503 0,-11.377942 -0.63656,-14.551785 -3.72121,-18.553989 -4.83139,-6.268495 -5.86966,-6.106909 -10.7225,1.668746 -3.61196,5.787382 -3.97595,8.019168 -3.33323,20.437432 0.42194,8.152604 1.64434,14.876624 2.94419,16.195074 3.59337,3.64481 10.33443,2.66326 12.66942,-1.84476 z m 117.35907,6.86638 c -8.37672,-2.75704 -10.83006,-8.63036 -9.56335,-22.89475 1.46511,-16.498507 3.98179,-19.779583 10.71506,-13.969521 11.02707,9.515129 19.21224,-3.671792 9.37702,-15.107083 -2.37433,-2.760611 -7.59345,-9.854068 -11.59805,-15.763238 -6.69217,-9.874929 -7.36049,-11.961083 -8.26271,-25.791912 -1.67654,-25.701221 6.54383,-46.701891 19.90228,-50.844598 10.6378,-3.29898 13.19448,-2.679082 18.51046,4.488116 4.4403,5.986562 4.92519,7.891816 4.20329,16.5155923 -1.41416,16.8933377 -4.46141,19.3670097 -16.39649,13.3101894 -2.85552,-1.449116 -3.65976,-0.5847648 -4.51074,4.8479213 -1.25443,8.008348 1.84585,14.972953 5.90757,13.271055 1.57891,-0.661577 2.5026,-0.24842 2.05264,0.918119 -0.44996,1.166542 1.34045,4.164041 3.97867,6.661108 7.09859,6.718771 12.40624,25.437324 11.49076,40.524556 -1.38571,22.836497 -4.67834,34.760725 -10.91412,39.525345 -6.95012,5.31043 -16.71436,7.00072 -24.89229,4.3091 z m 21.10342,-5.92083 c 5.33638,-4.32655 10.59798,-17.545325 11.90042,-29.897495 2.19924,-20.857301 -5.01328,-42.509589 -17.72279,-53.204502 -5.76686,-4.85276 -8.20272,-15.13948 -5.03371,-21.2576751 2.03167,-3.9224122 7.22912,-3.8579381 15.00696,0.1861636 2.97774,1.5482845 3.42067,0.49336 4.3489,-10.357606 1.42486,-16.6564595 -0.80314,-19.7748215 -14.17257,-19.8363665 -10.12318,-0.0466 -10.53436,0.208389 -15.66696,9.715742 -5.83215,10.8031537 -8.07222,25.625024 -6.23906,41.281912 1.09509,9.353159 7.88713,21.739284 19.54851,35.649134 5.13832,6.129073 6.42915,14.698504 3.03359,20.139163 -2.60726,4.177573 -11.52278,3.800162 -16.97649,-0.718651 l -4.52512,-3.749394 -1.70165,12.713385 c -0.9359,6.992361 -1.70165,13.18941 -1.70165,13.77122 0,0.58181 1.95062,2.75342 4.33472,4.82581 5.30186,4.60867 20.26083,5.04115 25.5669,0.73916 z m -291.88124,1.33684 c -2.42452,-4.49246 -4.941,-20.035154 -7.66718,-47.355413 -0.83168,-8.334552 -2.62745,-21.972911 -3.9906,-30.307463 -4.554236,-27.8452702 -6.787016,-52.55596 -5.182775,-57.358903 1.920921,-5.751046 15.789745,-6.421045 18.648965,-0.90093 1.03067,1.989849 2.56745,10.797956 3.41506,19.5735705 0.84762,8.7756144 1.95789,20.2176515 2.46726,25.4267475 0.50937,5.209095 1.39372,9.471082 1.96521,9.471082 1.48442,0 6.42713,-30.91005933 6.42713,-40.1930889 0,-11.8400041 5.16654,-18.8005961 12.35173,-16.6407951 7.69965,2.314447 7.8703,2.567661 9.00063,13.355501 1.97853,18.8829544 5.63153,47.146258 6.21428,48.079993 1.07664,1.725088 3.80431,-18.119148 4.91097,-35.72807219 0.59575,-9.47954821 2.02976,-18.75221481 3.18667,-20.60592781 3.12162,-5.00173 14.40535,-7.468343 17.19495,-3.758798 2.96383,3.941249 3.06241,23.56451785 0.1379,27.4534604 -1.19457,1.5885304 -2.54179,8.8310036 -2.99381,16.0943866 -0.45201,7.263384 -2.26993,24.003186 -4.03982,37.19956 -1.76988,13.196375 -4.01944,30.527696 -4.99902,38.514043 -2.23868,18.251607 -4.60265,22.100887 -13.57295,22.100887 -6.54407,0 -7.2254,-0.6304 -9.30645,-8.61084 -1.23499,-4.73596 -3.07493,-16.953655 -4.08876,-27.150437 -2.40281,-24.166802 -3.97638,-28.958468 -5.23467,-15.940048 -0.53311,5.515708 -2.17498,18.395051 -3.6486,28.620764 -2.17398,15.085701 -3.37408,19.015461 -6.36318,20.836381 -5.84485,3.56062 -12.24367,2.62205 -14.83294,-2.17566 z m 11.00127,0.36569 c 4.56757,-1.46371 4.91039,-2.50789 8.0847,-24.624815 1.82318,-12.702957 4.25907,-31.051997 5.4131,-40.775641 l 2.09823,-17.679354 1.15334,10.102488 c 2.81812,24.684817 8.9931,70.375852 9.79041,72.442912 0.81777,2.12013 12.70336,1.49804 13.75484,-0.71993 0.58638,-1.23691 3.48419,-21.395742 7.40564,-51.518007 4.05976,-31.184624 8.90053,-66.7729713 10.22027,-75.137253 1.08687,-6.888442 1.03084,-6.94546 -6.82569,-6.94546 h -7.92157 l -1.79632,13.2595151 c -0.98798,7.2927334 -2.90101,25.1606169 -4.25118,39.7064059 -3.29103,35.455303 -4.47542,40.058251 -5.83307,22.669326 -0.99076,-12.689732 -6.94846,-65.008357 -8.27,-72.624567 -0.38499,-2.218744 -2.74738,-3.048006 -7.19494,-2.525622 -7.6355,0.896823 -6.65296,-2.974612 -12.37608,48.76457 -1.9975,18.058197 -4.22118,33.912789 -4.9415,35.232426 -0.77754,1.424466 -1.30968,0.835574 -1.30968,-1.449366 0,-5.511074 -4.48908,-54.0802866 -6.44889,-69.7731729 L 111.87387,-21.95149 h -7.76955 c -4.871262,0 -7.769545,1.099764 -7.769545,2.948184 0,4.51739 15.907925,129.243256 16.768715,131.474916 0.90981,2.35873 3.32554,2.46659 9.67468,0.43196 z"
         style="fill:#128b7a;stroke-width:1.99525356" />
      <path
         id="path23"
         d="m 204.70264,115.1753 c 1.95063,-0.60199 5.14255,-0.60199 7.09317,0 1.95063,0.60199 0.35466,1.09453 -3.54658,1.09453 -3.90124,0 -5.49721,-0.49254 -3.54659,-1.09453 z m 52.01658,0.10974 c 1.08368,-0.70064 2.85697,-0.70064 3.94065,0 1.08368,0.70064 0.19703,1.27389 -1.97032,1.27389 -2.16736,0 -3.05401,-0.57325 -1.97033,-1.27389 z m 84.3599,-0.0776 c 1.53366,-0.64035 3.66161,-0.59824 4.72878,0.0936 1.06718,0.69183 -0.18762,1.21576 -2.78845,1.16428 -2.60083,-0.0515 -3.47398,-0.6175 -1.94033,-1.25786 z m 47.25781,0.009 c 1.51715,-0.63526 3.99976,-0.63526 5.51691,0 1.51715,0.63527 0.27584,1.15503 -2.75846,1.15503 -3.0343,0 -4.2756,-0.51976 -2.75845,-1.15503 z m -198.30748,-4.71249 c -2.88504,-3.70351 -2.83475,-3.75608 0.88092,-0.9207 4.82498,3.68188 5.71921,4.84847 3.7165,4.84847 -0.84573,0 -2.91458,-1.7675 -4.59742,-3.92777 z m 218.54033,-5.21048 c 2.09282,-4.33149 4.12216,-7.422508 4.50965,-6.868927 0.38749,0.553579 -1.3248,4.097527 -3.80511,7.875437 l -4.50965,6.86892 z m -124.77938,-2.85846 -3.82134,-6.945459 4.33471,6.122899 c 2.38409,3.3676 4.33472,6.49305 4.33472,6.94546 0,1.98078 -1.27646,0.36868 -4.84809,-6.1229 z m -119.55201,0.42094 c 0.0756,-2.942207 0.44914,-3.540671 0.95233,-1.5259 0.45533,1.82318 0.39933,4.00153 -0.12445,4.84078 -0.52378,0.83924 -0.89632,-0.65246 -0.82788,-3.31488 z m -34.67772,-7.576867 c 0.0756,-2.942206 0.44915,-3.540669 0.95233,-1.525897 0.45533,1.823183 0.39933,4.001532 -0.12445,4.840776 -0.52378,0.839241 -0.89632,-0.652454 -0.82788,-3.314879 z m 15.7626,0 c 0.0756,-2.942206 0.44914,-3.540669 0.95233,-1.525897 0.45533,1.823183 0.39933,4.001532 -0.12445,4.840776 -0.52378,0.839241 -0.89632,-0.652454 -0.82788,-3.314879 z m 102.69815,-3.577965 c 0,-4.861823 0.32439,-6.85075 0.72087,-4.419839 0.39646,2.430911 0.39646,6.408766 0,8.839677 -0.39648,2.430911 -0.72087,0.441984 -0.72087,-4.419838 z M 374.0054,94.22712 c 0,-3.47273 0.35778,-4.893393 0.79505,-3.157028 0.43727,1.736365 0.43727,4.57769 0,6.314055 -0.43727,1.736365 -0.79505,0.315703 -0.79505,-3.157027 z M 109.0693,92.753841 c 0.0756,-2.942206 0.44914,-3.540669 0.95232,-1.525897 0.45534,1.823183 0.39934,4.001532 -0.12445,4.840776 -0.52377,0.839241 -0.89632,-0.652454 -0.82788,-3.314879 z m 56.74535,0 c 0.0756,-2.942206 0.44914,-3.540669 0.95233,-1.525897 0.45533,1.823183 0.39933,4.001532 -0.12445,4.840776 -0.52378,0.839241 -0.89633,-0.652454 -0.82788,-3.314879 z m 160.96137,-4.840776 c 0.0322,-4.167276 0.38539,-5.566309 0.78504,-3.10896 0.39964,2.457347 0.37336,5.866936 -0.0585,7.576866 -0.43171,1.709927 -0.75869,-0.30063 -0.72656,-4.467906 z M 143.87146,84.124632 c 0,-3.47273 0.35776,-4.893393 0.79504,-3.157028 0.43727,1.736366 0.43727,4.57769 0,6.314055 -0.43728,1.736365 -0.79504,0.315703 -0.79504,-3.157027 z m 166.83466,0 c 1.30042,-1.346551 3.07371,-2.448272 3.94065,-2.448272 0.86695,0 0.51229,1.101721 -0.78813,2.448272 -1.30041,1.34655 -3.0737,2.448272 -3.94065,2.448272 -0.86694,0 -0.51228,-1.101722 0.78813,-2.448272 z m 26.40236,0.85295 c 1.08368,-0.700637 2.85697,-0.700637 3.94065,0 1.08368,0.700641 0.19703,1.273889 -1.97033,1.273889 -2.16735,0 -3.054,-0.573248 -1.97032,-1.273889 z m 59.10975,-1.05525 c 3.79501,-3.541687 3.45542,-12.090236 -0.78813,-19.839897 l -3.54659,-6.476834 4.33472,6.122901 c 2.38409,3.367596 4.33471,8.538807 4.33471,11.49158 0,5.759254 -2.73948,11.478596 -5.4381,11.35337 -0.91029,-0.04223 -0.41376,-1.235244 1.10339,-2.65112 z M 214.55427,79.073388 c 1.73388,-2.778184 3.61711,-5.051244 4.18495,-5.051244 0.56784,0 -0.25141,2.27306 -1.82056,5.051244 -1.56915,2.778184 -3.45237,5.051244 -4.18496,5.051244 -0.73256,0 0.0867,-2.27306 1.82057,-5.051244 z m 82.60388,-0.631406 -3.00275,-5.682649 3.94064,5.024328 c 2.16736,2.763382 4.2362,5.320574 4.59744,5.68265 0.36121,0.362076 -0.0608,0.658321 -0.93791,0.658321 -0.87706,0 -2.9459,-2.557192 -4.59742,-5.68265 z m 53.20674,0.206571 c -0.13871,-3.706391 -0.71132,-8.820775 -1.27239,-11.365299 -0.78216,-3.547175 -0.57152,-3.964862 0.90294,-1.790527 1.07969,1.592173 1.63771,6.576546 1.27239,11.365299 -0.52894,6.933497 -0.69789,7.26852 -0.90294,1.790527 z m 17.39388,-8.414842 c 0.0322,-4.167276 0.3854,-5.566309 0.78504,-3.10896 0.39965,2.457347 0.37337,5.866937 -0.0585,7.576866 -0.4317,1.709927 -0.75868,-0.30063 -0.72656,-4.467906 z M 105.91678,70.023243 c 0.0756,-2.942205 0.44914,-3.540669 0.95232,-1.525897 0.45534,1.823183 0.39934,4.001532 -0.12445,4.840776 -0.52377,0.839242 -0.89632,-0.652454 -0.82788,-3.314879 z m 130.82957,0 c 0.0757,-2.942205 0.44914,-3.540669 0.95232,-1.525897 0.45533,1.823183 0.39934,4.001532 -0.12437,4.840776 -0.52379,0.839242 -0.89632,-0.652454 -0.82788,-3.314879 z m 36.37841,-6.103587 c 0,-3.47273 0.35778,-4.893392 0.79505,-3.157027 0.43727,1.736365 0.43727,4.57769 0,6.314055 -0.43727,1.736365 -0.79505,0.315702 -0.79505,-3.157028 z M 154.73478,61.394034 c -0.0668,-3.47273 -0.52794,-9.155379 -1.02478,-12.628109 -0.68913,-4.816804 -0.51724,-5.432487 0.72486,-2.596403 1.43351,3.27312 1.71765,3.27312 2.37624,0 2.07547,-10.314751 2.44953,-10.297835 1.56512,0.07077 -0.53319,6.250914 -1.54331,13.638358 -2.24472,16.416543 -1.15899,4.590633 -1.28636,4.47548 -1.39672,-1.262811 z m -34.75611,-3.432815 c 0,-3.441099 -0.4923,-8.338424 -1.09399,-10.882948 -1.0247,-4.333346 -0.92486,-4.35786 1.57626,-0.386966 2.94756,4.679703 3.55397,13.529505 1.09399,15.96554 -0.88881,0.880162 -1.57626,-1.167729 -1.57626,-4.695626 z m 99.30438,-1.277826 c 0,-3.979946 -1.48796,-10.514992 -3.30658,-14.522326 l -3.30659,-7.286063 4.09472,7.086299 c 2.48019,4.292209 4.09471,10.018284 4.09471,14.522326 0,4.089816 -0.35466,7.436027 -0.78813,7.436027 -0.43347,0 -0.78813,-3.25632 -0.78813,-7.236263 z m 17.64615,0.922208 c 0.0322,-4.167276 0.3854,-5.566309 0.78504,-3.108959 0.39965,2.457346 0.37337,5.866936 -0.0583,7.576865 -0.43186,1.709927 -0.75884,-0.300629 -0.72672,-4.467906 z m -66.38577,-0.21046 c 0.0756,-2.942205 0.44914,-3.540669 0.95233,-1.525897 0.45533,1.823183 0.39933,4.001532 -0.12445,4.840776 -0.52378,0.839242 -0.89633,-0.652454 -0.82788,-3.314879 z m 171.68789,1.473271 c -1.42066,-1.471073 -1.61508,-2.463709 -0.48709,-2.486947 1.03251,-0.02121 2.31568,1.097855 2.85148,2.486947 1.20947,3.135623 0.6638,3.135623 -2.36439,0 z M 136.73287,45.293194 c 0.32157,-3.993639 0.63452,-9.108024 0.69545,-11.365298 0.085,-3.14981 0.42579,-2.92958 1.46547,0.947108 1.83853,6.855371 1.91027,14.519783 0.11929,12.746243 -0.80133,-0.793533 -1.77374,-0.0083 -2.16092,1.745162 -0.38717,1.753372 -0.44085,-0.07957 -0.11929,-4.073215 z m 136.50871,-1.578513 c 0,-4.861823 0.32439,-6.85075 0.72087,-4.419839 0.39646,2.430911 0.39646,6.408766 0,8.839677 -0.39648,2.430911 -0.72087,0.441984 -0.72087,-4.419838 z m -170.35288,0 c 0,-3.472731 0.35777,-4.893393 0.79504,-3.157028 0.43727,1.736365 0.43727,4.57769 0,6.314055 -0.43727,1.736365 -0.79504,0.315703 -0.79504,-3.157027 z m 228.27718,1.201776 c -1.09663,-2.117206 -1.68861,-4.338579 -1.31553,-4.936383 0.3731,-0.597802 1.54417,1.134459 2.60238,3.849467 2.28843,5.871371 1.52523,6.516003 -1.28685,1.086916 z m 77.26349,-4.358804 c -2.32065,-5.079288 -2.70128,-6.843306 -0.9985,-4.627556 2.58472,3.363371 6.49293,12.835828 5.2959,12.835828 -0.30094,0 -2.23477,-3.693723 -4.2974,-8.208272 z m -51.21242,-4.39091 c -0.55222,-1.431674 0.0806,-1.855087 1.48323,-0.992597 2.73075,1.679011 3.23037,3.489291 0.96303,3.489291 -0.81577,0 -1.9166,-1.123513 -2.44626,-2.496694 z M 117.19185,26.035327 c 0,-4.861822 0.32439,-6.85075 0.72086,-4.419838 0.39647,2.430911 0.39647,6.408765 0,8.839676 -0.39647,2.430911 -0.72086,0.441984 -0.72086,-4.419838 z m 84.35827,5.904194 c 1.08368,-0.700637 2.85698,-0.700637 3.94065,0 1.08368,0.700641 0.19704,1.273889 -1.97032,1.273889 -2.16736,0 -3.054,-0.573248 -1.97033,-1.273889 z M 346.9601,26.035327 c -1.42066,-1.471074 -1.61508,-2.463709 -0.48709,-2.486947 1.03251,-0.02122 2.31568,1.097855 2.85148,2.486947 1.20947,3.135623 0.6638,3.135623 -2.36439,0 z m 46.58904,-3.087588 c -3.11949,-7.136127 -3.12028,-13.086932 -0.002,-17.2331723 2.17859,-2.8970551 2.24142,-2.5213158 0.56454,3.3757236 -1.55987,5.4854897 -1.43207,7.7479637 0.73739,13.0531437 3.22531,7.887157 2.1008,8.583082 -1.29963,0.804305 z m -66.95597,-3.436935 c 0.0757,-2.942205 0.44914,-3.540669 0.95231,-1.525897 0.45534,1.823183 0.39935,4.001532 -0.12436,4.840776 -0.5238,0.839242 -0.89633,-0.652454 -0.82789,-3.314879 z M 126.40815,16.985182 c 0.0756,-2.942205 0.44915,-3.540669 0.95233,-1.525897 0.45533,1.823183 0.39933,4.001532 -0.12445,4.840776 -0.52378,0.839242 -0.89632,-0.652454 -0.82788,-3.314879 z m 97.93195,2.291093 c -1.56352,-1.005202 -1.6102,-2.131317 -0.20105,-4.851853 1.00928,-1.948556 2.54437,-3.542827 3.41131,-3.542827 0.96175,0 0.89185,1.32136 -0.17933,3.389408 -0.96557,1.864174 -1.28886,4.137234 -0.71843,5.051244 1.16602,1.868293 0.64904,1.858016 -2.3125,-0.04597 z m 74.03048,-9.9169656 c 1.4126,-2.2633942 3.32416,-3.6992128 4.24791,-3.1907041 0.92375,0.5085062 -0.23202,2.3603756 -2.56837,4.1152637 -3.92587,2.948805 -4.0532,2.878711 -1.67954,-0.9245596 z M 161.08587,6.8826946 c 0.0756,-2.9422056 0.44914,-3.5406694 0.95233,-1.5258974 0.45533,1.8231833 0.39933,4.0015323 -0.12445,4.8407758 -0.52378,0.839242 -0.89632,-0.6524536 -0.82788,-3.3148784 z m 183.1264,1.4732787 c 0.35457,-2.0836382 2.00453,-4.0525246 3.66659,-4.3753016 2.12328,-0.4123533 2.3188,-0.1119861 0.6575,1.0101073 -1.30041,0.8783381 -2.95038,2.847222 -3.66658,4.3753016 -0.83756,1.7869764 -1.07217,1.4265524 -0.65751,-1.0101073 z M 98.035476,4.3570727 C 98.111105,1.4148671 98.484617,0.81640325 98.9878,2.8311752 99.443136,4.6543586 99.387136,6.8327075 98.863354,7.6719515 98.339576,8.5111929 97.967028,7.0194975 98.035471,4.3570727 Z M 277.65295,7.0931623 c 0,-1.3890921 0.68758,-4.2304168 1.52798,-6.31405491 0.84039,-2.08363809 1.52798,-2.65190309 1.52798,-1.26281098 0,1.38909208 -0.68759,4.23041679 -1.52798,6.31405489 -0.8404,2.0836381 -1.52798,2.6519031 -1.52798,1.262811 z m 77.18845,-1.262811 c -1.42067,-1.4710738 -1.61508,-2.4637089 -0.48709,-2.4869471 1.03251,-0.021215 2.31568,1.097855 2.85148,2.4869471 1.20947,3.1356228 0.6638,3.1356228 -2.36439,0 z M 208.24923,2.3121321 c 0,-0.5459283 1.10082,-1.66944113 2.44626,-2.49669345 1.40275,-0.86248975 2.03546,-0.43907685 1.48323,0.99259721 -0.92568,2.39985604 -3.92949,3.54963034 -3.92949,1.50409624 z m 203.46198,-5.5319253 c 0.0757,-2.9422056 0.44913,-3.5406694 0.95231,-1.5258974 0.45533,1.8231833 0.39934,4.00153225 -0.12437,4.84077622 -0.52379,0.83924144 -0.89632,-0.65245402 -0.82788,-3.31487882 z M 113.79807,-5.7454151 c 0.0756,-2.9422057 0.44915,-3.5406695 0.95233,-1.5258975 0.45534,1.8231834 0.39934,4.0015323 -0.12445,4.8407763 -0.52378,0.8392414 -0.89632,-0.6524541 -0.82788,-3.3148788 z m 33.22591,-1.0523434 c 0,-3.4727305 0.35776,-4.8933925 0.79504,-3.1570274 0.43727,1.7363651 0.43727,4.5776898 0,6.3140549 -0.43728,1.7363651 -0.79504,0.3157027 -0.79504,-3.1570275 z m 15.53785,-0.21046 c 0.0133,-3.3569805 0.7216,-7.8083895 1.57406,-9.8920275 1.09044,-2.665352 1.24981,-1.167911 0.53757,5.051244 -1.24743,10.89246663 -2.14369,12.9470778 -2.11163,4.8407759 z m 122.92414,-6.1035945 c 2.03613,-3.472731 4.05671,-6.314055 4.49018,-6.314055 0.43347,0 -0.87779,2.841324 -2.91392,6.314055 -2.03614,3.4727298 -4.05671,6.3140545 -4.49019,6.3140545 -0.43347,0 0.87779,-2.8413247 2.91393,-6.3140545 z m 44.13527,5.3604933 c 0,-0.5244605 1.24131,-2.5133883 2.75846,-4.4198383 2.50004,-3.141548 2.55579,-3.052217 0.59513,0.953561 -2.05918,4.2070498 -3.35359,5.5449501 -3.35359,3.4662773 z M 217.03913,-23.073581 c -0.71541,-6.110381 -2.39451,-10.107266 -5.31206,-12.644756 -2.34628,-2.040647 -3.53715,-3.755772 -2.64637,-3.811386 3.44034,-0.214804 8.42411,7.82963 9.43941,15.236347 0.58462,4.264877 0.72593,8.294315 0.31402,8.954303 -0.41191,0.65999 -1.21965,-2.820539 -1.795,-7.734508 z m 141.74292,1.122091 c -2.56995,-1.769476 -2.65995,-2.203398 -0.48709,-2.348109 1.46598,-0.09763 3.10381,0.959017 3.63961,2.348109 1.12019,2.904159 1.06541,2.904159 -3.15252,0 z m -45.31747,-1.672672 c 1.08368,-0.700637 2.85697,-0.700637 3.94065,0 1.08368,0.700641 0.19703,1.273889 -1.97033,1.273889 -2.16735,0 -3.054,-0.573248 -1.97032,-1.273889 z m 91.52159,-0.05261 c 1.13786,-0.729579 2.49738,-0.639852 3.02117,0.199398 0.52378,0.839243 -0.40721,1.436172 -2.06884,1.326507 -1.83626,-0.12118 -2.20976,-0.719654 -0.95233,-1.525898 z m -56.02575,-2.550568 c 1.53366,-0.640354 3.66161,-0.598241 4.72878,0.09357 1.06718,0.691826 -0.18762,1.215754 -2.78845,1.164282 -2.60083,-0.05147 -3.47398,-0.61751 -1.94033,-1.257866 z m 45.68155,0.0093 c 1.51715,-0.635262 3.99975,-0.635262 5.51691,0 1.51715,0.635265 0.27584,1.155025 -2.75846,1.155025 -3.0343,0 -4.2756,-0.51976 -2.75845,-1.155025 z M 194.06289,-30.521 c 0,-0.545929 1.10082,-1.669441 2.44626,-2.496694 1.40275,-0.86249 2.03546,-0.439077 1.48323,0.992597 -0.92567,2.399857 -3.92949,3.549631 -3.92949,1.504097 z m 39.53094,-8.271922 c -0.0684,-1.622753 -0.53266,-5.032342 -1.0316,-7.576866 -0.86229,-4.397661 -0.81781,-4.40317 0.8997,-0.111405 0.99376,2.483247 1.45798,5.892836 1.03159,7.576865 -0.55954,2.209912 -0.80987,2.240912 -0.89969,0.111406 z m -8.20681,-22.937161 c -1.96066,-4.005777 -1.90491,-4.095109 0.59513,-0.953562 2.62566,3.299395 3.46065,5.3734 2.16333,5.3734 -0.32731,0 -1.56862,-1.988927 -2.75846,-4.419838 z"
         style="fill:#1e7b6f;stroke-width:1.99525356" />
    </g>
  </g>
</svg>
