<svg version="1.1" xmlns="http://www.w3.org/2000/svg" xmlns:xlink="http://www.w3.org/1999/xlink" viewBox="0,0,1024,1024">
	<desc>gif icon - Licensed under Apache License v2.0 (http://www.apache.org/licenses/LICENSE-2.0) - Created with Iconfu.com - Derivative work of Material icons (Copyright Google Inc.)</desc>
	<g fill="#489e30" fill-rule="nonzero" style="mix-blend-mode: normal">
		<path d="M874.04,874.04c-199.95,199.95 -524.13,199.95 -724.08,0c-199.95,-199.95 -199.95,-524.13 0,-724.08c199.95,-199.95 524.13,-199.95 724.08,0c199.95,199.95 199.95,524.13 0,724.08zM431.36,431.36h-80.64c-16.13,0 -26.88,13.44 -26.88,26.88v107.52c0,13.44 10.75,26.88 26.88,26.88h80.64c16.13,0 26.88,-13.44 26.88,-26.88v-53.76h-40.32v40.32h-53.76v-80.64h94.08v-13.44c0,-13.44 -10.75,-26.88 -26.88,-26.88zM700.16,471.68v-40.32h-120.96v161.28h40.32v-53.76h53.76v-40.32h-53.76v-26.88zM498.56,592.64h40.32v-161.28h-40.32z"/>
	</g>
</svg>