<svg version="1.1" xmlns="http://www.w3.org/2000/svg" xmlns:xlink="http://www.w3.org/1999/xlink" viewBox="0,0,1024,1024">
	<desc>local_movies icon - Licensed under Apache License v2.0 (http://www.apache.org/licenses/LICENSE-2.0) - Created with Iconfu.com - Derivative work of Material icons (Copyright Google Inc.)</desc>
	<g fill="#489e30" fill-rule="nonzero" style="mix-blend-mode: normal">
		<path d="M874.04,874.04c-199.95,199.95 -524.13,199.95 -724.08,0c-199.95,-199.95 -199.95,-524.13 0,-724.08c199.95,-199.95 524.13,-199.95 724.08,0c199.95,199.95 199.95,524.13 0,724.08zM673.28,270.08v53.76h-53.76v-53.76h-215.04v53.76h-53.76v-53.76h-53.76v483.84h53.76v-53.76h53.76v53.76h215.04v-53.76h53.76v53.76h53.76v-483.84zM673.28,431.36h-53.76v-53.76h53.76zM404.48,431.36h-53.76v-53.76h53.76zM673.28,538.88h-53.76v-53.76h53.76zM404.48,538.88h-53.76v-53.76h53.76zM673.28,646.4h-53.76v-53.76h53.76zM404.48,646.4h-53.76v-53.76h53.76z"/>
	</g>
</svg>