<svg version="1.1" xmlns="http://www.w3.org/2000/svg" xmlns:xlink="http://www.w3.org/1999/xlink" viewBox="0,0,1024,1024">
	<desc>business_center icon - Licensed under Apache License v2.0 (http://www.apache.org/licenses/LICENSE-2.0) - Created with Iconfu.com - Derivative work of Material icons (Copyright Google Inc.)</desc>
	<g fill="#394c9c" fill-rule="nonzero" style="mix-blend-mode: normal">
		<path d="M874.04,874.04c-199.95,199.95 -524.13,199.95 -724.08,0c-199.95,-199.95 -199.95,-524.13 0,-724.08c199.95,-199.95 524.13,-199.95 724.08,0c199.95,199.95 199.95,524.13 0,724.08zM727.04,377.6h-107.79v-53.76l-53.76,-53.76h-107.52l-53.76,53.76v53.76h-107.25c-29.57,0 -53.76,24.19 -53.76,53.76v80.64c0,29.84 23.93,53.76 53.76,53.76h161.28v-53.76h107.52v53.76h161.28c29.57,0 53.76,-24.19 53.76,-53.76v-80.64c0,-29.57 -24.2,-53.76 -53.76,-53.76zM458.24,619.52v-26.88h-187.89l-0.27,107.52c0,29.84 23.92,53.76 53.76,53.76h376.32c29.84,0 53.76,-23.92 53.76,-53.76v-107.52h-188.16v26.88zM565.76,377.6h-107.52v-53.76h107.52z"/>
	</g>
</svg>