<svg version="1.1" xmlns="http://www.w3.org/2000/svg" xmlns:xlink="http://www.w3.org/1999/xlink" viewBox="0,0,1024,1024">
	<desc>restaurant icon - Licensed under Apache License v2.0 (http://www.apache.org/licenses/LICENSE-2.0) - Created with Iconfu.com - Derivative work of Material icons (Copyright Google Inc.)</desc>
	<g fill="#394c9c" fill-rule="nonzero" style="mix-blend-mode: normal">
		<path d="M874.04,874.04c-199.95,199.95 -524.13,199.95 -724.08,0c-199.95,-199.95 -199.95,-524.13 0,-724.08c199.95,-199.95 524.13,-199.95 724.08,0c199.95,199.95 199.95,524.13 0,724.08zM485.12,431.36h-53.76v-188.16h-53.76v188.16h-53.76v-188.16h-53.76v188.16c0,56.98 44.62,103.22 100.8,106.72v242.73h67.2v-242.73c56.18,-3.5 100.8,-49.73 100.8,-106.72v-188.16h-53.76zM619.52,350.72v215.04h67.2v215.04h67.2v-537.6c-74.19,0 -134.4,60.22 -134.4,107.52z"/>
	</g>
</svg>