<svg version="1.1" xmlns="http://www.w3.org/2000/svg" xmlns:xlink="http://www.w3.org/1999/xlink" viewBox="0,0,1024,1024">
	<desc>schedule icon - Licensed under Apache License v2.0 (http://www.apache.org/licenses/LICENSE-2.0) - Created with Iconfu.com - Derivative work of Material icons (Copyright Google Inc.)</desc>
	<g fill="#394c9c" fill-rule="nonzero" style="mix-blend-mode: normal">
		<path d="M874.04,874.04c-199.95,199.95 -524.13,199.95 -724.08,0c-199.95,-199.95 -199.95,-524.13 0,-724.08c199.95,-199.95 524.13,-199.95 724.08,0c199.95,199.95 199.95,524.13 0,724.08zM511.73,243.2c-148.38,0 -268.53,120.42 -268.53,268.8c0,148.38 120.15,268.8 268.53,268.8c148.65,0 269.07,-120.42 269.07,-268.8c0,-148.38 -120.42,-268.8 -269.07,-268.8zM512,727.04c-118.81,0 -215.04,-96.23 -215.04,-215.04c0,-118.81 96.23,-215.04 215.04,-215.04c118.81,0 215.04,96.23 215.04,215.04c0,118.81 -96.23,215.04 -215.04,215.04zM525.44,377.6h-40.32v161.28l141.12,84.67l20.16,-33.06l-120.96,-71.77z"/>
	</g>
</svg>